#!OML:ASF F:\VICON\USERDATA\INSTALL\rory3\rory3.ASF
:FULLY-SPECIFIED
:DEGREES
1803
root -0.32876 17.4223 7.56771 -358.959 -106.943 358.844
lowerback 9.35553 -0.997551 -4.73186
upperback -1.02432 -1.83632 0.681544
thorax -6.16501 -0.730374 3.64691
lowerneck -18.0079 -4.10281 -14.9249
upperneck -20.2773 -3.70237 12.8376
head -2.7307 -1.85972 6.52347
rclavicle 5.51472e-014 1.39149e-015
rhumerus 70.432 -28.7292 -23.5022
rradius 45.8244
rwrist 3.63661
rhand -36.1742 5.40252
rfingers 7.12502
rthumb -9.27792 -24.3733
lclavicle 5.51472e-014 1.39149e-015
lhumerus 56.9697 17.0712 15.1891
lradius 51.4758
lwrist 17.2318
lhand -24.7297 23.6064
lfingers 7.12502
lthumb 1.77266 53.5788
rfemur -18.759 2.05384 6.36707
rtibia 55.4148
rfoot -15.0904 -0.427998
rtoes -3.66224
lfemur -7.61312 -1.52741 -13.7788
ltibia 27.2683
lfoot -17.7599 -5.82102
ltoes -16.297
1804
root -0.320972 17.4395 7.57014 -358.753 -106.64 358.639
lowerback 9.4722 -0.935059 -4.84927
upperback -0.968336 -1.76376 0.810945
thorax -6.17195 -0.689381 3.84237
lowerneck -18.1102 -4.3063 -15.2423
upperneck -20.2299 -3.90505 12.8509
head -2.67288 -1.93497 6.56732
rclavicle 9.21864e-015 5.76476e-015
rhumerus 69.7932 -29.1436 -23.1864
rradius 46.9272
rwrist 3.07913
rhand -36.1083 5.49085
rfingers 7.12502
rthumb -9.21435 -24.2878
lclavicle 9.21864e-015 5.76476e-015
lhumerus 56.3908 16.9161 15.9948
lradius 53.0222
lwrist 17.5863
lhand -24.7325 23.7883
lfingers 7.12502
lthumb 1.76996 53.7607
rfemur -18.7763 2.21299 6.13286
rtibia 55.1715
rfoot -15.3462 -0.696419
rtoes 0.702186
lfemur -7.35144 -1.96774 -13.8631
ltibia 26.5834
lfoot -17.4946 -5.64845
ltoes -16.6001
1805
root -0.315298 17.4587 7.57225 -359.018 -106.417 358.984
lowerback 9.51526 -0.992549 -4.73773
upperback -0.984774 -1.83222 0.774054
thorax -6.21114 -0.725939 3.75173
lowerneck -18.0564 -4.25164 -14.8401
upperneck -20.1597 -3.89779 12.8077
head -2.664 -1.95613 6.48238
rclavicle -5.03826e-014 3.18055e-015
rhumerus 69.5937 -29.2646 -23.8405
rradius 47.7224
rwrist 3.03585
rhand -36.3206 5.87464
rfingers 7.12502
rthumb -9.41912 -23.8949
lclavicle -5.03826e-014 3.18055e-015
lhumerus 55.5393 16.7213 16.0546
lradius 54.7812
lwrist 18.1195
lhand -24.5317 24.099
lfingers 7.12502
lthumb 1.96384 54.0697
rfemur -18.8686 2.37409 6.04175
rtibia 54.8863
rfoot -15.442 -0.891832
rtoes 3.14806
lfemur -7.17741 -2.22251 -13.7451
ltibia 25.9405
lfoot -17.3079 -5.62392
ltoes -16.8697
1806
root -0.312283 17.4758 7.57067 -358.802 -106.253 358.886
lowerback 9.47481 -1.00684 -4.72886
upperback -1.05384 -1.84912 0.77419
thorax -6.26003 -0.731499 3.74935
lowerneck -17.7338 -4.22721 -14.7802
upperneck -20.2025 -3.89817 12.7983
head -2.7208 -1.96193 6.47461
rclavicle 2.57271e-014 -8.05078e-015
rhumerus 69.377 -29.2839 -24.2568
rradius 48.442
rwrist 3.09024
rhand -36.5567 6.11688
rfingers 7.12502
rthumb -9.647 -23.6422
lclavicle 2.57271e-014 -8.05078e-015
lhumerus 54.5646 16.4478 16.1799
lradius 56.6208
lwrist 18.3947
lhand -24.3286 24.5984
lfingers 7.12502
lthumb 2.16004 54.5672
rfemur -19.0463 2.53575 5.79792
rtibia 54.5786
rfoot -15.3711 -1.17597
rtoes 2.1237
lfemur -7.05621 -2.27619 -13.7374
ltibia 25.3502
lfoot -17.1202 -5.81862
ltoes -17.0821
1807
root -0.309123 17.4888 7.56578 -358.702 -106.144 358.882
lowerback 9.45704 -1.0133 -4.69411
upperback -1.06942 -1.84895 0.837232
thorax -6.26539 -0.730936 3.79601
lowerneck -17.5425 -4.25733 -15.1214
upperneck -20.2472 -3.88024 12.9921
head -2.74887 -1.93554 6.6021
rclavicle -2.00182e-015 -1.13556e-014
rhumerus 69.1503 -29.4203 -24.3583
rradius 49.1395
rwrist 3.05591
rhand -37.0817 6.26986
rfingers 7.12502
rthumb -10.1535 -23.4651
lclavicle -2.00182e-015 -1.13556e-014
lhumerus 53.6147 16.2617 16.5779
lradius 58.4111
lwrist 18.5464
lhand -23.9542 24.6033
lfingers 7.12502
lthumb 2.5216 54.5681
rfemur -19.1937 2.85018 5.57778
rtibia 54.2504
rfoot -15.3041 -1.47189
rtoes 1.09123
lfemur -6.90046 -2.29019 -13.6767
ltibia 24.8075
lfoot -16.9475 -6.08133
ltoes -17.0616
